<svg xmlns="http://www.w3.org/2000/svg" viewBox="0 0 444 156" width="444" height="156" role="img" aria-label="jasem">
  <title>jasem</title>
  <rect x="42" y="24" width="18" height="18" fill="#E07B39"/>
  <rect x="60" y="24" width="18" height="18" fill="#C44E3B"/>
  <rect x="78" y="24" width="18" height="18" fill="#8A4B6B"/>
  <rect x="78" y="42" width="18" height="18" fill="#8A4B6B"/>
  <rect x="114" y="24" width="18" height="18" fill="#D8A657"/>
  <rect x="114" y="42" width="18" height="18" fill="#D8A657"/>
  <rect x="132" y="24" width="18" height="18" fill="#E07B39"/>
  <rect x="150" y="24" width="18" height="18" fill="#C44E3B"/>
  <rect x="150" y="42" width="18" height="18" fill="#C44E3B"/>
  <rect x="186" y="24" width="18" height="18" fill="#5A6DA8"/>
  <rect x="186" y="42" width="18" height="18" fill="#5A6DA8"/>
  <rect x="204" y="24" width="18" height="18" fill="#D8A657"/>
  <rect x="222" y="24" width="18" height="18" fill="#E07B39"/>
  <rect x="258" y="24" width="18" height="18" fill="#8A4B6B"/>
  <rect x="258" y="42" width="18" height="18" fill="#8A4B6B"/>
  <rect x="276" y="24" width="18" height="18" fill="#5A6DA8"/>
  <rect x="294" y="24" width="18" height="18" fill="#D8A657"/>
  <rect x="330" y="24" width="18" height="18" fill="#C44E3B"/>
  <rect x="330" y="42" width="18" height="18" fill="#C44E3B"/>
  <rect x="348" y="24" width="18" height="18" fill="#8A4B6B"/>
  <rect x="366" y="24" width="18" height="18" fill="#5A6DA8"/>
  <rect x="366" y="42" width="18" height="18" fill="#5A6DA8"/>
  <rect x="384" y="24" width="18" height="18" fill="#D8A657"/>
  <rect x="402" y="24" width="18" height="18" fill="#E07B39"/>
  <rect x="402" y="42" width="18" height="18" fill="#E07B39"/>
  <rect x="42" y="78" width="18" height="18" fill="#C44E3B"/>
  <rect x="78" y="60" width="18" height="18" fill="#5A6DA8"/>
  <rect x="78" y="78" width="18" height="18" fill="#5A6DA8"/>
  <rect x="114" y="60" width="18" height="18" fill="#E07B39"/>
  <rect x="114" y="78" width="18" height="18" fill="#E07B39"/>
  <rect x="132" y="60" width="18" height="18" fill="#C44E3B"/>
  <rect x="150" y="60" width="18" height="18" fill="#8A4B6B"/>
  <rect x="150" y="78" width="18" height="18" fill="#8A4B6B"/>
  <rect x="186" y="60" width="18" height="18" fill="#D8A657"/>
  <rect x="204" y="60" width="18" height="18" fill="#E07B39"/>
  <rect x="222" y="60" width="18" height="18" fill="#C44E3B"/>
  <rect x="222" y="78" width="18" height="18" fill="#C44E3B"/>
  <rect x="258" y="60" width="18" height="18" fill="#5A6DA8"/>
  <rect x="258" y="78" width="18" height="18" fill="#5A6DA8"/>
  <rect x="276" y="60" width="18" height="18" fill="#D8A657"/>
  <rect x="294" y="60" width="18" height="18" fill="#E07B39"/>
  <rect x="330" y="60" width="18" height="18" fill="#8A4B6B"/>
  <rect x="330" y="78" width="18" height="18" fill="#8A4B6B"/>
  <rect x="366" y="60" width="18" height="18" fill="#D8A657"/>
  <rect x="402" y="60" width="18" height="18" fill="#C44E3B"/>
  <rect x="402" y="78" width="18" height="18" fill="#C44E3B"/>
  <rect x="42" y="96" width="18" height="18" fill="#8A4B6B"/>
  <rect x="60" y="96" width="18" height="18" fill="#5A6DA8"/>
  <rect x="78" y="96" width="18" height="18" fill="#D8A657"/>
  <rect x="114" y="96" width="18" height="18" fill="#C44E3B"/>
  <rect x="150" y="96" width="18" height="18" fill="#5A6DA8"/>
  <rect x="186" y="96" width="18" height="18" fill="#E07B39"/>
  <rect x="204" y="96" width="18" height="18" fill="#C44E3B"/>
  <rect x="222" y="96" width="18" height="18" fill="#8A4B6B"/>
  <rect x="258" y="96" width="18" height="18" fill="#D8A657"/>
  <rect x="276" y="96" width="18" height="18" fill="#E07B39"/>
  <rect x="294" y="96" width="18" height="18" fill="#C44E3B"/>
  <rect x="330" y="96" width="18" height="18" fill="#5A6DA8"/>
  <rect x="402" y="96" width="18" height="18" fill="#8A4B6B"/>
</svg>
